<svg version="1.1" id="Layer_1" xmlns="http://www.w3.org/2000/svg" xmlns:xlink="http://www.w3.org/1999/xlink" x="0px" y="0px"
	 width="100%" viewBox="0 0 164 108" enable-background="new 0 0 164 108" xml:space="preserve">
<path fill="#000000" opacity="1.000000" stroke="none" 
	d="
M138.000000,1.000000 
	C146.985397,1.000000 155.970795,1.000000 164.978088,1.000000 
	C164.978088,36.926987 164.978088,72.853996 164.978088,109.000000 
	C120.312675,109.000000 75.624992,109.000000 30.135414,108.687881 
	C29.881136,107.397827 30.660437,106.481346 30.938766,105.431984 
	C32.736214,98.655220 34.424282,91.849442 36.433643,85.134315 
	C37.484035,85.758148 38.249012,86.300842 39.278309,86.957191 
	C40.000481,87.405792 40.458336,87.740746 40.953217,88.427490 
	C42.986496,91.222321 44.982754,93.665359 47.134636,96.413475 
	C51.200630,98.755737 55.111004,100.792923 59.367580,103.018204 
	C61.477356,103.414108 63.240929,103.621925 65.399696,103.901222 
	C66.861252,103.918793 67.927605,103.864876 69.424271,103.881569 
	C72.901566,103.577332 75.948555,103.202484 79.386780,102.895638 
	C81.855972,102.329796 83.933952,101.695961 86.391556,101.042740 
	C91.833504,98.876602 96.731094,96.526283 99.420624,90.906563 
	C107.373222,79.441399 110.290466,68.720634 102.089539,53.952877 
	C102.072426,53.955719 102.070976,53.946533 102.029007,53.719254 
	C101.987038,53.491970 101.829224,53.057495 101.818802,52.710152 
	C100.554047,50.554737 99.299706,48.746662 98.011002,46.585011 
	C94.992737,42.777771 92.008850,39.324104 88.962440,35.642296 
	C88.713791,35.126133 88.449547,34.971863 88.014931,34.696838 
	C87.651878,34.002903 87.381104,33.563469 87.478012,33.079254 
	C88.423553,32.747437 88.993332,32.442616 89.580475,32.176044 
	C97.759850,28.462549 105.941605,24.754286 114.465698,21.018147 
	C116.237434,20.015572 117.666252,19.039598 119.455109,18.050222 
	C123.225281,14.990783 129.298798,14.429222 129.455231,7.904330 
	C130.865158,7.583650 131.953125,7.406351 132.907166,7.512821 
	C132.273483,8.415168 131.773743,9.033745 131.274002,9.652322 
	C131.565002,9.914838 131.856018,10.177353 132.147018,10.439868 
	C133.487228,8.998057 134.827423,7.556247 136.136505,6.082689 
	C136.105377,6.050942 136.046417,6.117498 136.308563,6.038418 
	C136.751755,5.655520 136.932800,5.351703 137.077332,5.043329 
	C137.040802,5.038773 137.052414,5.111465 137.330551,5.015287 
	C137.715302,4.567348 137.821915,4.215587 138.012222,3.742758 
	C138.095901,3.621690 137.990601,3.346818 138.220490,3.176200 
	C138.317215,2.639771 138.184036,2.273960 138.067261,1.951547 
	C138.083633,1.994945 138.166763,1.953788 138.095230,1.720557 
	C138.023697,1.487327 138.000000,1.000000 138.000000,1.000000 
z"/>
<path fill="#000000" opacity="1.000000" stroke="none" 
	d="
M9.000000,109.000000 
	C6.339688,109.000000 3.679375,109.000000 1.014297,109.000000 
	C1.009531,73.092140 1.009531,37.184277 1.009531,1.000000 
	C23.353468,1.000000 45.708076,1.000000 68.867821,1.271474 
	C65.827354,4.050514 61.981750,6.558080 57.984077,9.375403 
	C55.276936,11.838968 52.721863,13.992776 50.095085,16.332939 
	C50.023384,16.519297 49.971909,16.915316 49.612968,16.970718 
	C46.169891,20.376276 42.591934,23.400610 40.116520,27.152399 
	C36.335346,32.883228 33.372677,39.149147 29.950232,45.123577 
	C28.047489,48.445122 25.917168,51.636299 23.526512,54.921387 
	C22.814724,55.678345 22.465837,56.400154 21.941553,57.431145 
	C18.905691,64.818947 16.045227,71.897560 13.122352,79.246811 
	C13.096815,79.698891 13.133693,79.880333 13.016011,80.355331 
	C12.630139,81.427612 12.398829,82.206352 12.095541,83.391785 
	C11.738050,86.200874 11.452535,88.603264 11.105025,91.257523 
	C11.088347,91.676270 11.133664,91.843140 10.982927,92.386574 
	C10.580792,96.510345 10.374711,100.257568 10.105209,104.255043 
	C10.083630,104.672295 10.125470,104.839287 10.097659,105.351364 
	C10.035252,106.397675 10.042498,107.098900 9.776348,107.906815 
	C9.335302,108.342331 9.167651,108.671165 9.000000,109.000000 
z"/>
<path fill="#A371C7" opacity="1.000000" stroke="none" 
	d="
M21.000000,109.000000 
	C19.933214,109.000000 18.866426,109.000000 17.277922,108.727112 
	C16.700796,108.262817 16.645388,108.071426 16.739250,107.517639 
	C17.259464,105.535110 17.528101,103.883308 18.018139,102.300034 
	C20.953728,92.815308 23.980944,83.358795 26.883959,73.864243 
	C27.712524,71.154343 29.328379,71.093704 31.606264,72.396652 
	C32.771511,75.522621 33.804966,78.297485 34.552288,81.058014 
	C33.886246,81.004128 33.506329,80.964584 32.976658,80.710434 
	C32.580238,80.249428 32.333576,80.003021 32.095291,79.398849 
	C31.775221,76.280632 30.313162,74.626999 28.754448,77.878578 
	C24.061708,87.667915 19.162464,97.533905 21.000000,109.000000 
z"/>
<path fill="#D74EB4" opacity="1.000000" stroke="none" 
	d="
M21.375000,109.000000 
	C19.162464,97.533905 24.061708,87.667915 28.754448,77.878578 
	C30.313162,74.626999 31.775221,76.280632 31.841553,79.656311 
	C29.743034,83.864243 27.906630,87.456932 26.053949,91.371658 
	C26.032129,92.124367 26.026585,92.555023 25.791859,93.274063 
	C24.669430,96.665771 23.572393,99.733047 23.012985,102.895424 
	C22.854887,103.789169 24.268986,104.961021 24.930204,106.320999 
	C24.598928,107.424446 24.299465,108.212227 24.000000,109.000000 
	C23.250000,109.000000 22.500000,109.000000 21.375000,109.000000 
z"/>
<path fill="#E88C8A" opacity="1.000000" stroke="none" 
	d="
M33.126419,80.925049 
	C33.506329,80.964584 33.886246,81.004128 34.714104,81.376389 
	C35.490780,82.823807 35.819504,83.938492 36.148228,85.053185 
	C34.424282,91.849442 32.736214,98.655220 30.938766,105.431984 
	C30.660437,106.481346 29.881136,107.397827 29.666756,108.687881 
	C28.933331,109.000000 27.866661,109.000000 26.465485,108.641479 
	C27.122217,104.172791 28.113459,100.062607 29.100090,95.604019 
	C29.109894,94.556267 29.124310,93.856918 29.445625,93.019638 
	C30.513351,90.574646 31.274178,88.267593 32.105537,85.600906 
	C32.492851,83.802528 32.809635,82.363785 33.126419,80.925049 
z"/>
<path fill="#7D98C5" opacity="1.000000" stroke="none" 
	d="
M58.136147,9.065646 
	C61.981750,6.558080 65.827354,4.050514 69.336479,1.271474 
	C70.066673,1.000000 71.133339,1.000000 72.779282,1.287047 
	C74.233757,1.769119 75.108963,1.964143 75.701355,2.353872 
	C72.614738,3.998913 69.810936,5.449248 66.751709,6.930853 
	C66.326477,6.986580 66.156677,7.011037 65.624710,7.089852 
	C62.887077,7.784689 60.511612,8.425167 58.136147,9.065646 
z"/>
<path fill="#F96588" opacity="1.000000" stroke="none" 
	d="
M29.104702,95.952431 
	C28.113459,100.062607 27.122217,104.172791 26.065487,108.641479 
	C25.555555,109.000000 25.111111,109.000000 24.333332,109.000000 
	C24.299465,108.212227 24.598928,107.424446 24.971970,105.925064 
	C25.686983,102.468895 26.328421,99.724335 27.241188,96.863274 
	C28.043247,96.481995 28.573975,96.217216 29.104702,95.952431 
z"/>
<path fill="#C2FFFF" opacity="1.000000" stroke="none" 
	d="
M75.984161,2.159167 
	C75.108963,1.964143 74.233757,1.769119 73.179276,1.287047 
	C82.687561,1.000000 92.375122,1.000000 102.544281,1.204893 
	C103.025887,1.409787 103.036049,1.820265 102.568657,1.886802 
	C93.395561,2.021949 84.689865,2.090558 75.984161,2.159167 
z"/>
<path fill="#E7FFFF" opacity="1.000000" stroke="none" 
	d="
M103.036049,1.820265 
	C103.036049,1.820265 103.025887,1.409787 103.012939,1.204893 
	C108.688042,1.000000 114.376083,1.000000 120.532829,1.218051 
	C121.001534,1.436103 121.003319,1.872205 120.666870,1.934049 
	C119.878525,2.056043 119.426628,2.116194 118.650497,2.119260 
	C117.890862,2.103382 117.455460,2.144587 116.591881,2.137954 
	C114.450516,2.124157 112.737328,2.158197 110.768524,2.150081 
	C110.342659,2.136908 110.172401,2.165889 109.570213,2.128397 
	C107.104202,1.981370 105.070129,1.900817 103.036049,1.820265 
z"/>
<path fill="#FFD7FE" opacity="1.000000" stroke="none" 
	d="
M121.003319,1.872205 
	C121.003319,1.872205 121.001534,1.436103 121.000763,1.218051 
	C125.025185,1.000000 129.050369,1.000000 133.528503,1.183813 
	C133.981476,1.367626 133.954971,1.734762 133.942596,1.820195 
	C133.930222,1.905629 133.988937,2.067422 133.542892,2.026080 
	C130.404785,2.047382 127.712730,2.110025 124.620537,2.120348 
	C123.148041,2.002753 122.075676,1.937479 121.003319,1.872205 
z"/>
<path fill="#B0FFFF" opacity="1.000000" stroke="none" 
	d="
M16.589981,107.880035 
	C16.645388,108.071426 16.700796,108.262817 16.878101,108.727112 
	C14.629442,109.000000 12.258885,109.000000 9.444164,109.000000 
	C9.167651,108.671165 9.335302,108.342331 10.165209,107.977066 
	C11.885785,107.892906 12.944106,107.845184 14.325190,107.847656 
	C15.295294,107.891907 15.942637,107.885971 16.589981,107.880035 
z"/>
<path fill="#FDDBE4" opacity="1.000000" stroke="none" 
	d="
M133.954971,1.734762 
	C133.954971,1.734762 133.981476,1.367626 133.990738,1.183813 
	C135.066788,1.000000 136.133575,1.000000 137.600189,1.000000 
	C138.000000,1.000000 138.023697,1.487327 137.673340,1.785812 
	C136.200317,1.967786 135.077637,1.851274 133.954971,1.734762 
z"/>
<path fill="#9F75C8" opacity="1.000000" stroke="none" 
	d="
M59.021378,102.830116 
	C55.111004,100.792923 51.200630,98.755737 47.145218,95.990295 
	C45.911213,92.179863 44.822247,89.097679 43.769638,85.637985 
	C43.458530,83.557610 43.111069,81.854744 42.755478,79.818680 
	C42.153278,78.320129 41.559204,77.154778 40.968967,75.555290 
	C40.957199,73.096397 40.941593,71.071640 40.968369,68.640030 
	C40.991676,67.144463 40.972610,66.055740 40.978233,64.597290 
	C41.052525,63.488098 41.102119,62.748638 41.348190,61.808659 
	C41.771893,61.094559 41.999126,60.580978 42.534058,59.928833 
	C46.440853,54.827587 49.898949,49.753258 53.701401,44.951614 
	C55.474140,42.713047 57.914120,41.002872 60.313087,38.880589 
	C61.705502,37.779537 62.836483,36.851097 64.334206,35.894524 
	C66.132652,35.561089 67.564369,35.255787 69.002678,35.228241 
	C69.015465,35.691124 69.021645,35.876244 68.835510,36.331169 
	C66.051872,39.019676 63.460556,41.438385 60.524124,43.913731 
	C58.793556,44.816555 57.238998,45.474106 56.050278,46.539749 
	C48.705635,53.123947 44.178551,60.817631 44.542885,71.272575 
	C44.902176,81.582695 47.173779,90.754181 55.283096,97.949142 
	C55.495667,97.995178 55.922199,98.080566 55.994934,98.397980 
	C57.052242,100.086967 58.036812,101.458542 59.021378,102.830116 
z"/>
<path fill="#F86487" opacity="1.000000" stroke="none" 
	d="
M89.024963,35.870438 
	C92.008850,39.324104 94.992737,42.777771 97.991623,47.038391 
	C98.972420,52.567131 99.938225,57.288918 100.912613,62.399220 
	C100.916260,63.824711 100.911331,64.861694 100.585815,66.052666 
	C99.822052,67.786179 99.378876,69.365692 98.628448,71.063553 
	C97.873642,72.123734 97.426094,73.065582 96.964859,74.233078 
	C96.951180,74.458725 96.939919,74.910713 96.586929,74.948494 
	C94.170769,75.991920 92.107582,76.997566 90.027328,77.992050 
	C90.010262,77.980888 89.974907,77.960541 89.824020,77.719261 
	C88.777740,77.637993 87.882362,77.798004 86.657608,77.961754 
	C85.889084,77.971237 85.449928,77.976990 84.812157,77.830444 
	C84.071060,78.110527 83.528580,78.542915 82.573357,78.982285 
	C78.465637,77.640236 74.770653,76.291214 71.430069,74.968323 
	C72.885529,74.728470 73.986588,74.462479 75.302322,74.379662 
	C76.053650,74.734520 76.590302,74.906204 77.210922,75.173401 
	C77.294891,75.268906 77.655579,75.293770 77.655579,75.293770 
	C77.655579,75.293770 77.936615,75.046455 78.283783,75.032646 
	C79.094452,75.012581 79.557945,75.006325 80.435349,75.006287 
	C84.452438,73.934372 88.492332,73.549934 91.558914,71.619415 
	C96.450455,68.540009 97.756859,59.755619 95.178658,52.468529 
	C93.210724,46.906361 91.082100,41.401043 89.024963,35.870438 
z"/>
<path fill="#ED48A2" opacity="1.000000" stroke="none" 
	d="
M88.962440,35.642296 
	C91.082100,41.401043 93.210724,46.906361 95.178658,52.468529 
	C97.756859,59.755619 96.450455,68.540009 91.558914,71.619415 
	C88.492332,73.549934 84.452438,73.934372 80.614990,74.789803 
	C80.923134,74.049057 81.465553,73.531021 82.345566,72.944138 
	C87.969414,69.474121 91.292435,65.132431 91.084015,58.350471 
	C90.833725,50.206417 87.144325,43.432014 83.025215,36.924377 
	C81.465889,34.460854 81.280258,33.677483 84.311676,32.886055 
	C85.072754,32.987003 85.507385,33.046688 86.045319,33.396584 
	C86.801483,34.108315 87.454338,34.529831 88.107201,34.951347 
	C88.449547,34.971863 88.713791,35.126133 88.962440,35.642296 
z"/>
<path fill="#FA6D7F" opacity="1.000000" stroke="none" 
	d="
M86.011932,101.062134 
	C83.933952,101.695961 81.855972,102.329796 79.252449,102.584587 
	C71.505066,99.713806 66.141670,94.550545 60.976166,89.311691 
	C58.772614,87.076851 57.594288,83.831131 55.957741,80.680275 
	C55.326500,79.200829 54.687603,78.085884 54.044533,76.641464 
	C54.034603,75.872688 54.028847,75.433388 54.244793,74.669647 
	C54.718128,72.269661 54.623199,70.068024 55.319527,68.154297 
	C56.006439,66.266449 57.494122,64.669968 58.703014,63.281967 
	C58.847187,64.071373 58.918831,64.524460 58.969746,65.318985 
	C58.962849,66.116241 58.976681,66.572060 58.970066,67.344963 
	C58.922935,68.084259 58.896248,68.506454 58.536114,69.095276 
	C57.813473,70.450539 57.053757,71.651886 57.093964,72.825836 
	C57.403385,81.860710 60.543362,89.079887 70.247528,92.205246 
	C71.324883,92.612816 72.157677,92.806908 72.997330,93.243942 
	C73.004189,93.486900 73.021660,93.972687 73.048988,94.338608 
	C75.873650,100.788078 81.433357,98.526375 86.069260,99.352158 
	C86.040169,100.150047 86.026054,100.606094 86.011932,101.062134 
z"/>
<path fill="#F74F94" opacity="1.000000" stroke="none" 
	d="
M55.950081,81.044777 
	C57.594288,83.831131 58.772614,87.076851 60.976166,89.311691 
	C66.141670,94.550545 71.505066,99.713806 78.861221,102.516594 
	C75.948555,103.202484 72.901566,103.577332 69.307358,103.588150 
	C67.510178,102.483345 66.260201,101.742569 64.937714,100.663788 
	C61.245789,94.888412 57.326836,89.618958 54.142120,83.937904 
	C52.699883,81.365166 52.715717,77.975067 52.395473,74.961639 
	C53.154938,74.976379 53.589012,74.985237 54.023090,74.994095 
	C54.028847,75.433388 54.034603,75.872688 54.035187,77.005051 
	C54.670036,78.813675 55.310059,79.929222 55.950081,81.044777 
z"/>
<path fill="#F0A468" opacity="1.000000" stroke="none" 
	d="
M102.106651,53.950035 
	C110.290466,68.720634 107.373222,79.441399 99.072372,90.896393 
	C97.936455,91.016937 97.471817,91.005981 97.072922,90.636879 
	C97.858360,88.632172 98.969910,87.032593 99.174698,85.324310 
	C99.340767,83.939049 98.417320,82.423187 98.041122,80.633713 
	C98.407547,79.220146 98.709961,78.138130 99.360336,76.969757 
	C104.733971,73.373360 105.277084,69.908737 102.039612,61.533855 
	C102.058632,58.708656 102.082642,56.329346 102.106651,53.950035 
z"/>
<path fill="#3CBAEB" opacity="1.000000" stroke="none" 
	d="
M36.433643,85.134315 
	C35.819504,83.938492 35.490780,82.823807 35.000237,81.390732 
	C33.804966,78.297485 32.771511,75.522621 31.767754,72.393433 
	C31.797447,72.039124 32.117268,72.021095 32.391434,72.087509 
	C35.860584,73.711067 34.740597,71.070633 34.988808,69.764328 
	C36.004887,64.416801 34.294918,58.399509 38.909668,54.363258 
	C38.924500,58.199814 38.909935,61.602196 38.908058,65.371201 
	C38.903183,66.469894 38.885612,67.201965 38.549500,68.075554 
	C38.524258,71.490913 38.817566,74.764748 39.107170,78.347549 
	C39.122696,79.066956 39.141926,79.477394 39.179008,80.246445 
	C39.135902,82.684555 39.074944,84.764046 39.013988,86.843536 
	C38.249012,86.300842 37.484035,85.758148 36.433643,85.134315 
z"/>
<path fill="#D155B0" opacity="1.000000" stroke="none" 
	d="
M133.041092,7.229052 
	C131.953125,7.406351 130.865158,7.583650 129.084503,7.913157 
	C123.350655,9.592149 119.982895,12.674919 119.095070,18.063625 
	C117.666252,19.039598 116.237434,20.015572 114.114120,20.983313 
	C112.590973,20.295317 111.762314,19.615555 111.216698,18.757378 
	C115.662537,13.732030 119.825348,8.885100 124.266418,4.034847 
	C124.730148,4.027532 124.915619,4.023540 125.455360,3.999027 
	C128.515198,4.295314 131.220764,4.612122 133.990997,5.211236 
	C134.101196,5.681181 134.146713,5.868821 134.062256,6.307068 
	C133.635223,6.781469 133.338165,7.005260 133.041092,7.229052 
z"/>
<path fill="#C266B2" opacity="1.000000" stroke="none" 
	d="
M110.933662,18.935795 
	C111.762314,19.615555 112.590973,20.295317 113.771202,21.009912 
	C105.941605,24.754286 97.759850,28.462549 89.580475,32.176044 
	C88.993332,32.442616 88.423553,32.747437 87.186462,33.062904 
	C86.332161,33.096348 86.137093,33.101360 85.942024,33.106377 
	C85.507385,33.046688 85.072754,32.987003 84.315697,32.580330 
	C83.995377,31.821722 83.997475,31.410093 84.325348,30.839478 
	C93.411972,26.765591 102.172813,22.850691 110.933662,18.935795 
z"/>
<path fill="#E1559E" opacity="1.000000" stroke="none" 
	d="
M119.455109,18.050222 
	C119.982895,12.674919 123.350655,9.592149 128.762543,8.056540 
	C129.298798,14.429222 123.225281,14.990783 119.455109,18.050222 
z"/>
<path fill="#FB8A6E" opacity="1.000000" stroke="none" 
	d="
M102.089539,53.952877 
	C102.082642,56.329346 102.058632,58.708656 101.754257,61.542236 
	C101.283936,62.001236 101.093979,62.005970 100.904022,62.010708 
	C99.938225,57.288918 98.972420,52.567131 98.025993,47.391964 
	C99.299706,48.746662 100.554047,50.554737 101.747787,52.827507 
	C101.652115,53.591717 101.780045,53.809826 102.070976,53.946533 
	C102.070976,53.946533 102.072426,53.955719 102.089539,53.952877 
z"/>
<path fill="#E09384" opacity="1.000000" stroke="none" 
	d="
M97.007187,90.995026 
	C97.471817,91.005981 97.936455,91.016937 98.749344,91.038071 
	C96.731094,96.526283 91.833504,98.876602 86.391556,101.042747 
	C86.026054,100.606094 86.040169,100.150047 86.396515,99.294968 
	C87.857430,97.947815 88.976112,96.999702 90.408493,95.985382 
	C91.822929,94.961914 92.923660,94.004639 94.283432,92.891632 
	C95.364059,92.155602 96.185623,91.575310 97.007187,90.995026 
z"/>
<path fill="#768FDA" opacity="1.000000" stroke="none" 
	d="
M43.733280,86.015503 
	C44.822247,89.097679 45.911213,92.179863 46.989594,95.685219 
	C44.982754,93.665359 42.986496,91.222321 41.185890,88.234642 
	C42.165455,87.131828 42.949368,86.573669 43.733280,86.015503 
z"/>
<path fill="#5AA3E4" opacity="1.000000" stroke="none" 
	d="
M43.769638,85.637985 
	C42.949368,86.573669 42.165455,87.131828 41.148865,87.882843 
	C40.458336,87.740746 40.000481,87.405792 39.278305,86.957199 
	C39.074944,84.764046 39.135902,82.684555 39.538132,80.277161 
	C40.840801,80.016800 41.802200,80.084343 42.763603,80.151886 
	C43.111069,81.854744 43.458530,83.557610 43.769638,85.637985 
z"/>
<path fill="#C15FBC" opacity="1.000000" stroke="none" 
	d="
M59.367580,103.018204 
	C58.036812,101.458542 57.052242,100.086967 56.303524,98.499756 
	C57.365940,98.513893 58.192505,98.743660 59.299637,99.111145 
	C60.359619,99.525826 61.139038,99.802795 62.008759,100.374466 
	C63.067539,101.722679 64.036018,102.776207 65.004501,103.829742 
	C63.240929,103.621925 61.477356,103.414108 59.367580,103.018204 
z"/>
<path fill="#DE4AB4" opacity="1.000000" stroke="none" 
	d="
M65.399696,103.901222 
	C64.036018,102.776207 63.067539,101.722679 62.334732,100.398270 
	C63.383682,100.418861 64.196953,100.710327 65.010231,101.001801 
	C66.260201,101.742569 67.510178,102.483345 68.877060,103.517540 
	C67.927605,103.864876 66.861252,103.918793 65.399696,103.901222 
z"/>
<path fill="#D0889B" opacity="1.000000" stroke="none" 
	d="
M134.192215,6.056459 
	C134.146713,5.868821 134.101196,5.681181 134.022125,4.855839 
	C133.988708,3.501231 133.988831,2.784327 133.988937,2.067422 
	C133.988937,2.067422 133.930222,1.905629 133.942596,1.820195 
	C135.077637,1.851274 136.200317,1.967786 137.744873,2.019043 
	C138.166763,1.953788 138.083633,1.994945 138.012604,2.309554 
	C137.957932,2.865048 137.974258,3.105933 137.990601,3.346818 
	C137.990601,3.346818 138.095901,3.621690 137.727722,3.829982 
	C137.257172,4.396005 137.154800,4.753736 137.052429,5.111466 
	C137.052414,5.111465 137.040802,5.038773 136.762115,5.036781 
	C136.337769,5.395691 136.192093,5.756594 136.046417,6.117497 
	C136.046417,6.117498 136.105377,6.050942 135.819031,5.960382 
	C135.085846,5.932034 134.639038,5.994246 134.192215,6.056459 
z"/>
<path fill="#FDDBE4" opacity="1.000000" stroke="none" 
	d="
M134.062256,6.307068 
	C134.639038,5.994246 135.085846,5.932034 135.850159,5.992128 
	C134.827423,7.556247 133.487228,8.998057 132.147018,10.439868 
	C131.856018,10.177353 131.565002,9.914838 131.274002,9.652322 
	C131.773743,9.033745 132.273483,8.415168 132.907166,7.512821 
	C133.338165,7.005260 133.635223,6.781469 134.062256,6.307068 
z"/>
<path fill="#F86487" opacity="1.000000" stroke="none" 
	d="
M86.045319,33.396584 
	C86.137093,33.101360 86.332161,33.096348 86.818771,33.107689 
	C87.381104,33.563469 87.651878,34.002903 88.014931,34.696838 
	C87.454338,34.529831 86.801483,34.108315 86.045319,33.396584 
z"/>
<path fill="#FDDBE4" opacity="1.000000" stroke="none" 
	d="
M137.330566,5.015288 
	C137.154800,4.753736 137.257172,4.396005 137.644043,3.951050 
	C137.821915,4.215587 137.715302,4.567348 137.330566,5.015288 
z"/>
<path fill="#FDDBE4" opacity="1.000000" stroke="none" 
	d="
M138.220490,3.176200 
	C137.974258,3.105933 137.957932,2.865048 137.996231,2.266156 
	C138.184036,2.273960 138.317215,2.639771 138.220490,3.176200 
z"/>
<path fill="#F0A468" opacity="1.000000" stroke="none" 
	d="
M102.029007,53.719254 
	C101.780045,53.809826 101.652115,53.591717 101.758209,53.174850 
	C101.829224,53.057495 101.987038,53.491970 102.029007,53.719254 
z"/>
<path fill="#FDDBE4" opacity="1.000000" stroke="none" 
	d="
M136.308563,6.038417 
	C136.192093,5.756594 136.337769,5.395691 136.798645,5.041337 
	C136.932800,5.351703 136.751755,5.655520 136.308563,6.038417 
z"/>
<path fill="#2CD2ED" opacity="1.000000" stroke="none" 
	d="
M11.178981,92.010017 
	C11.133664,91.843140 11.088347,91.676270 11.432175,91.131699 
	C14.238039,88.266922 15.479600,85.727470 12.167517,82.985092 
	C12.398829,82.206352 12.630139,81.427612 13.208540,80.419739 
	C13.835294,80.141060 14.114960,80.091507 14.394625,80.041962 
	C13.991338,79.686707 13.588051,79.331444 13.184765,78.976181 
	C16.045227,71.897560 18.905691,64.818947 22.249472,57.393463 
	C23.144997,57.017300 23.557205,56.987995 23.901367,57.323578 
	C22.888355,61.151276 21.943390,64.614090 21.001236,68.494751 
	C20.654827,71.928963 20.305607,74.945335 19.635557,78.095413 
	C18.594624,80.213814 17.874521,82.198517 17.135109,84.480209 
	C17.113791,85.175446 17.111782,85.573677 16.870895,86.222839 
	C16.120930,88.032822 15.609841,89.591873 15.141796,91.472565 
	C15.177925,93.557297 15.171010,95.320412 15.123426,97.079582 
	C15.082758,97.075645 15.029665,97.013519 14.709667,97.108002 
	C13.918768,98.138695 13.447865,99.074905 12.761263,99.698784 
	C12.090034,96.927635 11.634507,94.468826 11.178981,92.010017 
z"/>
<path fill="#4DC5DE" opacity="1.000000" stroke="none" 
	d="
M23.889416,54.886234 
	C25.917168,51.636299 28.047489,48.445122 29.950232,45.123577 
	C33.372677,39.149147 36.335346,32.883228 40.116520,27.152399 
	C42.591934,23.400610 46.169891,20.376276 49.485558,17.299839 
	C49.475178,18.716131 49.233269,19.858707 48.975407,21.241386 
	C48.959450,21.481489 48.941021,21.962473 48.660816,22.141575 
	C43.852951,26.424397 39.193214,30.432507 37.636818,37.105991 
	C33.020889,43.315556 28.630388,49.269516 24.152164,55.139275 
	C24.064445,55.055069 23.889418,54.886234 23.889416,54.886234 
z"/>
<path fill="#60A5CE" opacity="1.000000" stroke="none" 
	d="
M57.984077,9.375403 
	C60.511612,8.425167 62.887077,7.784689 65.533539,7.418599 
	C64.634903,8.490324 63.439781,9.253036 62.300537,10.091657 
	C59.190647,12.380902 56.104332,14.702172 52.711262,16.974194 
	C51.664825,16.673946 50.915806,16.410265 50.166786,16.146584 
	C52.721863,13.992776 55.276936,11.838968 57.984077,9.375403 
z"/>
<path fill="#30CEE4" opacity="1.000000" stroke="none" 
	d="
M10.982927,92.386574 
	C11.634507,94.468826 12.090034,96.927635 12.765205,100.076630 
	C12.991087,101.524399 12.997323,102.281967 12.995230,103.276932 
	C12.986900,103.514328 12.974404,103.989243 12.623933,103.992203 
	C11.571851,103.998375 10.870239,104.001579 10.168629,104.004784 
	C10.374711,100.257568 10.580792,96.510345 10.982927,92.386574 
z"/>
<path fill="#4BADE4" opacity="1.000000" stroke="none" 
	d="
M12.974403,103.989243 
	C12.974404,103.989243 12.986900,103.514328 13.209244,103.044403 
	C14.007511,101.700203 14.583437,100.825928 15.342004,100.233047 
	C15.017240,102.942108 14.509834,105.369781 14.002428,107.797462 
	C12.944106,107.845184 11.885785,107.892906 10.438603,107.870377 
	C10.042498,107.098900 10.035252,106.397675 10.409403,105.336731 
	C11.518666,104.647758 12.246535,104.318497 12.974403,103.989243 
z"/>
<path fill="#30CEE4" opacity="1.000000" stroke="none" 
	d="
M12.095542,83.391785 
	C15.479600,85.727470 14.238039,88.266922 11.494167,90.879837 
	C11.452535,88.603264 11.738050,86.200874 12.095542,83.391785 
z"/>
<path fill="#3EB7EB" opacity="1.000000" stroke="none" 
	d="
M50.095085,16.332939 
	C50.915806,16.410265 51.664825,16.673946 52.731483,16.995579 
	C53.049122,17.053528 53.089333,17.096523 52.995949,17.407913 
	C51.598827,18.813297 50.295097,19.907290 48.991364,21.001282 
	C49.233269,19.858707 49.475178,18.716131 49.844498,17.244436 
	C49.971909,16.915316 50.023384,16.519297 50.095085,16.332939 
z"/>
<path fill="#4DC5DE" opacity="1.000000" stroke="none" 
	d="
M23.969412,56.958694 
	C23.557205,56.987995 23.144997,57.017300 22.424871,57.084282 
	C22.465837,56.400154 22.814724,55.678345 23.526514,54.921387 
	C23.889418,54.886234 24.064445,55.055069 24.096640,55.425858 
	C24.075693,56.183994 24.022552,56.571346 23.969412,56.958694 
z"/>
<path fill="#30CEE4" opacity="1.000000" stroke="none" 
	d="
M13.122351,79.246811 
	C13.588051,79.331444 13.991338,79.686707 14.394625,80.041962 
	C14.114960,80.091507 13.835294,80.141060 13.363100,80.126190 
	C13.133693,79.880333 13.096815,79.698891 13.122351,79.246811 
z"/>
<path fill="#30C0F0" opacity="1.000000" stroke="none" 
	d="
M12.623932,103.992203 
	C12.246535,104.318497 11.518666,104.647758 10.479055,104.991653 
	C10.125470,104.839287 10.083630,104.672295 10.105209,104.255043 
	C10.870239,104.001579 11.571851,103.998375 12.623932,103.992203 
z"/>
<path fill="#7093D7" opacity="1.000000" stroke="none" 
	d="
M14.325190,107.847656 
	C14.509834,105.369781 15.017240,102.942108 15.323130,99.866661 
	C15.090965,98.483772 15.060315,97.748642 15.029665,97.013519 
	C15.029665,97.013519 15.082758,97.075645 15.433311,96.941109 
	C16.459370,94.833771 17.134876,92.860977 17.821598,90.613319 
	C17.959949,89.266541 18.087082,88.194626 18.473825,87.008545 
	C18.877825,85.941177 19.022215,84.987984 19.176329,83.694656 
	C19.524796,82.290146 19.863537,81.225769 20.494608,80.021263 
	C21.208170,78.931091 21.629402,77.981049 22.193106,76.724014 
	C22.615721,75.330902 22.895864,74.244789 23.492508,73.050690 
	C24.830194,71.267761 25.851377,69.592812 26.912155,67.614029 
	C26.999895,66.904549 27.048040,66.498894 27.463486,66.082764 
	C28.806381,66.103447 29.781975,66.134598 30.786533,66.542999 
	C31.249422,68.620537 31.683346,70.320816 32.117268,72.021095 
	C32.117268,72.021095 31.797447,72.039124 31.635960,72.042343 
	C29.328379,71.093704 27.712524,71.154343 26.883959,73.864243 
	C23.980944,83.358795 20.953728,92.815308 18.018139,102.300034 
	C17.528101,103.883308 17.259464,105.535110 16.739250,107.517639 
	C15.942637,107.885971 15.295294,107.891907 14.325190,107.847656 
z"/>
<path fill="#EE43A0" opacity="1.000000" stroke="none" 
	d="
M32.976662,80.710442 
	C32.809635,82.363785 32.492851,83.802528 31.847780,85.742081 
	C31.003927,86.814865 30.488359,87.386826 29.665974,88.061890 
	C28.262840,89.126541 27.166531,90.088081 26.070221,91.049622 
	C27.906630,87.456932 29.743034,83.864243 31.833176,80.014084 
	C32.333576,80.003021 32.580238,80.249428 32.976662,80.710442 
z"/>
<path fill="#EE43A0" opacity="1.000000" stroke="none" 
	d="
M26.969860,96.979774 
	C26.328421,99.724335 25.686983,102.468895 25.003780,105.609390 
	C24.268986,104.961021 22.854887,103.789169 23.012985,102.895424 
	C23.572393,99.733047 24.669430,96.665771 26.004326,93.552200 
	C26.620604,94.687889 26.795231,95.833832 26.969860,96.979774 
z"/>
<path fill="#FA4E92" opacity="1.000000" stroke="none" 
	d="
M27.241188,96.863274 
	C26.795231,95.833832 26.620604,94.687889 26.233505,93.263817 
	C26.026585,92.555023 26.032129,92.124367 26.053947,91.371658 
	C27.166531,90.088081 28.262840,89.126541 29.657301,88.439156 
	C29.683208,90.194733 29.410965,91.676155 29.138723,93.157578 
	C29.124310,93.856918 29.109894,94.556267 29.100092,95.604019 
	C28.573975,96.217216 28.043247,96.481995 27.241188,96.863274 
z"/>
<path fill="#F96588" opacity="1.000000" stroke="none" 
	d="
M29.445625,93.019638 
	C29.410965,91.676155 29.683208,90.194733 29.964123,88.336044 
	C30.488359,87.386826 31.003927,86.814865 31.777248,86.101730 
	C31.274178,88.267593 30.513351,90.574646 29.445625,93.019638 
z"/>
<path fill="#3EB7EB" opacity="1.000000" stroke="none" 
	d="
M53.028900,17.032143 
	C56.104332,14.702172 59.190647,12.380902 62.300537,10.091657 
	C63.439781,9.253036 64.634903,8.490324 65.895706,7.364241 
	C66.156677,7.011037 66.326477,6.986580 67.140808,6.947412 
	C72.886650,5.781118 77.940842,4.049777 83.101685,3.630223 
	C89.049088,3.146725 95.090668,3.821662 100.991119,4.329699 
	C98.594528,6.111499 96.298180,7.557119 93.813927,8.724564 
	C89.659630,5.636477 87.637672,9.383368 84.619026,11.030037 
	C79.173645,13.039997 74.095726,15.028380 68.964935,16.698437 
	C68.912056,14.764399 68.912056,13.148688 68.912056,10.799152 
	C63.251156,13.052164 58.170246,15.074344 53.089333,17.096523 
	C53.089333,17.096523 53.049122,17.053528 53.028900,17.032143 
M74.944275,7.287944 
	C73.824532,8.074135 72.704781,8.860326 71.585037,9.646516 
	C71.822083,10.149988 72.059128,10.653461 72.296173,11.156932 
	C74.337105,10.393545 76.378036,9.630158 78.418968,8.866771 
	C78.346931,8.452613 78.274895,8.038456 78.202850,7.624298 
	C77.336609,7.461352 76.470360,7.298407 74.944275,7.287944 
z"/>
<path fill="#60A5CE" opacity="1.000000" stroke="none" 
	d="
M101.091354,3.993519 
	C95.090668,3.821662 89.049088,3.146725 83.101685,3.630223 
	C77.940842,4.049777 72.886650,5.781118 67.396225,6.916142 
	C69.810936,5.449248 72.614738,3.998913 75.701355,2.353872 
	C84.689865,2.090558 93.395561,2.021949 102.568657,1.886802 
	C105.070129,1.900817 107.104202,1.981370 109.453476,2.424253 
	C108.847519,3.202437 107.926353,3.618291 106.580505,4.023942 
	C104.467667,4.006999 102.779510,4.000259 101.091354,3.993519 
z"/>
<path fill="#A173C9" opacity="1.000000" stroke="none" 
	d="
M111.216698,18.757378 
	C102.172813,22.850691 93.411972,26.765591 83.950371,30.857738 
	C81.121063,31.611824 78.992516,32.188660 77.006699,32.472595 
	C79.461807,30.550541 81.774178,28.921385 84.449738,27.227177 
	C86.304970,26.170570 87.797012,25.179016 89.582817,24.204975 
	C90.267227,24.190210 90.657867,24.157932 91.351311,24.045353 
	C92.185692,23.361032 92.717270,22.757011 93.548195,22.172077 
	C94.246811,22.172453 94.646088,22.153740 95.372421,22.147808 
	C96.136292,22.160547 96.573097,22.160509 97.216736,22.285549 
	C97.974304,21.982826 98.525024,21.555023 99.084045,21.105019 
	C99.092339,21.082815 99.057556,21.050602 99.308556,20.921808 
	C100.065987,20.250025 100.572418,19.707035 101.429543,19.141735 
	C102.843330,18.732658 103.906425,18.345892 105.298660,17.909285 
	C106.440842,16.922976 107.253876,15.986508 108.311813,14.904835 
	C109.062157,14.203504 109.567604,13.647379 110.377380,12.930975 
	C114.722687,10.397024 117.717888,7.397120 117.020058,2.185792 
	C117.455460,2.144587 117.890862,2.103382 118.686127,2.453285 
	C120.693382,3.242320 122.340767,3.640246 123.988159,4.038171 
	C119.825348,8.885100 115.662537,13.732030 111.216698,18.757378 
z"/>
<path fill="#6A97DB" opacity="1.000000" stroke="none" 
	d="
M95.045357,22.135029 
	C94.646088,22.153740 94.246811,22.172453 93.214615,22.204741 
	C92.070633,22.854095 91.559570,23.489874 91.048508,24.125652 
	C90.657867,24.157932 90.267227,24.190210 89.214981,24.208540 
	C87.031136,24.830925 85.508896,25.467258 83.978188,26.089106 
	C83.969719,26.074619 83.987228,26.048576 84.056458,25.706051 
	C86.410316,23.893488 88.694946,22.423449 91.295822,20.816868 
	C94.588493,18.728958 97.564934,16.777584 100.978767,14.539450 
	C97.680321,11.958134 98.531670,10.512160 101.311760,8.922065 
	C103.443954,7.702542 105.124039,5.692568 107.005196,4.034144 
	C107.926353,3.618291 108.847519,3.202437 109.885406,2.490727 
	C110.172401,2.165889 110.342659,2.136908 110.826637,2.469033 
	C110.423103,4.887161 109.705849,6.944180 108.691376,9.185472 
	C107.595406,11.246209 106.796646,13.122675 105.862228,15.284541 
	C105.474205,16.366337 105.221863,17.162733 104.969513,17.959127 
	C103.906425,18.345892 102.843330,18.732658 101.212769,18.957527 
	C100.116051,19.547287 99.586807,20.298944 99.057556,21.050602 
	C99.057556,21.050602 99.092339,21.082815 98.739029,21.066902 
	C97.924835,21.038582 97.463943,21.026173 96.801010,20.859001 
	C96.081100,21.181170 95.563225,21.658098 95.045357,22.135029 
z"/>
<path fill="#8289D3" opacity="1.000000" stroke="none" 
	d="
M108.988594,9.001201 
	C109.705849,6.944180 110.423103,4.887161 111.082245,2.511189 
	C112.737328,2.158197 114.450516,2.124157 116.591881,2.137954 
	C117.717888,7.397120 114.722687,10.397024 110.301239,12.582540 
	C109.610054,11.263322 109.299324,10.132261 108.988594,9.001201 
z"/>
<path fill="#977BAF" opacity="1.000000" stroke="none" 
	d="
M124.266418,4.034848 
	C122.340767,3.640246 120.693382,3.242320 119.010361,2.510369 
	C119.426628,2.116194 119.878525,2.056043 120.666870,1.934049 
	C122.075676,1.937479 123.148041,2.002753 124.621529,2.428520 
	C125.048805,3.199191 125.074951,3.609369 125.101089,4.019547 
	C124.915619,4.023540 124.730148,4.027532 124.266418,4.034848 
z"/>
<path fill="#C1619A" opacity="1.000000" stroke="none" 
	d="
M125.455353,3.999028 
	C125.074951,3.609369 125.048805,3.199191 125.021667,2.480841 
	C127.712730,2.110025 130.404785,2.047382 133.542892,2.026080 
	C133.988831,2.784327 133.988708,3.501231 133.957458,4.573532 
	C131.220764,4.612122 128.515198,4.295314 125.455353,3.999028 
z"/>
<path fill="#C15FBC" opacity="1.000000" stroke="none" 
	d="
M76.863960,32.765495 
	C78.992516,32.188660 81.121063,31.611824 83.624588,31.016727 
	C83.997475,31.410093 83.995377,31.821722 83.989258,32.539070 
	C81.280258,33.677483 81.465889,34.460854 83.025215,36.924377 
	C87.144325,43.432014 90.833725,50.206417 91.084015,58.350471 
	C91.292435,65.132431 87.969414,69.474121 82.223770,72.812935 
	C81.764374,72.750572 81.520164,72.489044 81.696777,72.209808 
	C88.494331,64.955727 89.080788,57.293873 85.427094,48.538128 
	C82.234932,40.888424 79.811142,39.081146 71.968185,40.589684 
	C70.772842,40.094269 69.383705,39.416889 68.483727,39.823147 
	C65.891785,40.993172 63.497326,42.600670 60.986408,43.991402 
	C60.947525,43.946484 60.869244,43.857098 60.869240,43.857094 
	C63.460556,41.438385 66.051872,39.019676 69.211548,36.315941 
	C71.543236,35.050190 73.306557,34.069466 75.368950,33.036400 
	C76.066666,32.911205 76.465317,32.838352 76.863960,32.765495 
z"/>
<path fill="#C15FBC" opacity="1.000000" stroke="none" 
	d="
M55.070530,97.903099 
	C47.173779,90.754181 44.902176,81.582695 44.542885,71.272575 
	C44.178551,60.817631 48.705635,53.123947 56.050278,46.539749 
	C57.238998,45.474106 58.793556,44.816555 60.524124,43.913734 
	C60.869244,43.857098 60.947525,43.946484 60.817856,44.263847 
	C59.774166,46.035900 58.860149,47.490593 57.730251,49.190498 
	C56.362560,50.967747 55.210747,52.499783 53.710171,54.096397 
	C52.715279,54.643612 51.820538,54.986748 51.459862,55.629547 
	C44.752209,67.584053 45.640873,79.417870 52.065720,91.182968 
	C53.238071,93.329773 54.077446,95.658401 55.070530,97.903099 
z"/>
<path fill="#8088D5" opacity="1.000000" stroke="none" 
	d="
M60.051659,39.053196 
	C57.914120,41.002872 55.474140,42.713047 53.701401,44.951614 
	C49.898949,49.753258 46.440853,54.827587 42.238548,59.906490 
	C41.439541,60.014351 41.243732,60.005989 41.047836,59.595863 
	C42.397755,55.142326 43.747765,51.090549 45.412537,46.938290 
	C47.122013,45.431252 48.384083,43.852306 49.939941,42.655190 
	C52.887070,40.387596 55.597134,37.185318 60.051659,39.053196 
z"/>
<path fill="#DE4AB4" opacity="1.000000" stroke="none" 
	d="
M55.283096,97.949142 
	C54.077446,95.658401 53.238071,93.329773 52.065720,91.182968 
	C45.640873,79.417870 44.752209,67.584053 51.459862,55.629547 
	C51.820538,54.986748 52.715279,54.643612 53.697495,54.422920 
	C54.019501,55.120838 54.005424,55.556816 53.697815,56.197136 
	C52.601017,59.266155 51.797756,62.130825 50.997147,64.997742 
	C50.999798,64.999992 50.992844,64.994026 50.634621,65.148804 
	C47.667961,71.938637 48.579056,78.479774 51.376080,84.708504 
	C53.580524,89.617599 56.446770,94.229515 59.019073,98.973427 
	C58.192505,98.743660 57.365940,98.513893 56.230789,98.182343 
	C55.922199,98.080566 55.495667,97.995178 55.283096,97.949142 
z"/>
<path fill="#6798DC" opacity="1.000000" stroke="none" 
	d="
M60.313087,38.880589 
	C55.597134,37.185318 52.887070,40.387596 49.939941,42.655190 
	C48.384083,43.852306 47.122013,45.431252 45.194687,46.733116 
	C44.441513,46.086166 44.220951,45.543896 44.137161,44.714493 
	C44.528885,43.624439 44.783836,42.821514 45.286266,41.873787 
	C46.033154,41.160957 46.532566,40.592930 47.332733,39.936535 
	C48.418468,38.897526 49.203449,37.946888 50.181816,36.855339 
	C50.620083,36.506435 50.831928,36.268970 51.259487,35.859535 
	C52.012032,35.153934 52.515827,34.590832 53.336067,34.176849 
	C56.863598,36.972252 59.905106,34.879070 63.108086,34.236061 
	C63.473427,34.961021 63.720448,35.441837 63.967468,35.922653 
	C62.836483,36.851097 61.705502,37.779537 60.313087,38.880589 
z"/>
<path fill="#5AA3E4" opacity="1.000000" stroke="none" 
	d="
M44.000389,45.001629 
	C44.220951,45.543896 44.441513,46.086166 44.879929,46.833603 
	C43.747765,51.090549 42.397755,55.142326 40.871605,59.771641 
	C40.847553,60.902515 40.999634,61.455849 41.151718,62.009182 
	C41.102119,62.748638 41.052525,63.488098 40.636292,64.600113 
	C39.811558,64.983307 39.353466,64.993942 38.895370,65.004578 
	C38.909935,61.602196 38.924500,58.199814 38.940834,53.998077 
	C38.991199,52.465332 39.039799,51.731941 39.397293,50.893044 
	C40.476662,49.200329 41.247131,47.613121 42.265137,45.897091 
	C43.008575,45.512722 43.504482,45.257175 44.000389,45.001629 
z"/>
<path fill="#6A97DB" opacity="1.000000" stroke="none" 
	d="
M64.334206,35.894524 
	C63.720448,35.441837 63.473427,34.961021 63.112896,34.239807 
	C62.999386,33.999409 62.996113,33.991386 63.357780,33.988197 
	C64.813332,33.325836 65.907227,32.666664 67.248657,31.789547 
	C69.004509,30.703718 70.512810,29.835838 72.389328,28.937094 
	C75.858215,27.973352 78.958900,27.040474 81.922699,26.419910 
	C79.169708,28.785822 76.553596,30.839420 73.610931,32.974922 
	C71.854950,33.688042 70.425514,34.319263 68.996078,34.950485 
	C67.564369,35.255787 66.132652,35.561089 64.334206,35.894524 
z"/>
<path fill="#5AA3E4" opacity="1.000000" stroke="none" 
	d="
M39.110874,78.038582 
	C38.817566,74.764748 38.524258,71.490913 38.772446,68.278885 
	C39.851288,68.576096 40.388638,68.811493 40.925987,69.046890 
	C40.941593,71.071640 40.957199,73.096397 40.759678,75.737335 
	C40.067989,76.915207 39.589432,77.476898 39.110874,78.038582 
z"/>
<path fill="#A173C9" opacity="1.000000" stroke="none" 
	d="
M69.002678,35.228241 
	C70.425514,34.319263 71.854950,33.688042 73.894173,33.025127 
	C74.692596,33.025208 74.881241,33.056976 75.069878,33.088745 
	C73.306557,34.069466 71.543236,35.050190 69.403870,36.046135 
	C69.021645,35.876244 69.015465,35.691124 69.002678,35.228241 
z"/>
<path fill="#768FDA" opacity="1.000000" stroke="none" 
	d="
M39.107170,78.347549 
	C39.589432,77.476898 40.067989,76.915207 40.755840,76.171478 
	C41.559204,77.154778 42.153278,78.320129 42.755478,79.818680 
	C41.802200,80.084343 40.840801,80.016800 39.520275,79.918541 
	C39.141926,79.477394 39.122696,79.066956 39.107170,78.347549 
z"/>
<path fill="#768FDA" opacity="1.000000" stroke="none" 
	d="
M40.968365,68.640030 
	C40.388638,68.811493 39.851288,68.576096 39.090988,68.137360 
	C38.885612,67.201965 38.903183,66.469894 38.908062,65.371201 
	C39.353466,64.993942 39.811558,64.983307 40.611595,64.969849 
	C40.972610,66.055740 40.991676,67.144463 40.968365,68.640030 
z"/>
<path fill="#768FDA" opacity="1.000000" stroke="none" 
	d="
M41.348190,61.808659 
	C40.999634,61.455849 40.847553,60.902515 40.871696,60.173401 
	C41.243732,60.005989 41.439541,60.014351 41.930855,60.045059 
	C41.999126,60.580978 41.771893,61.094559 41.348190,61.808659 
z"/>
<path fill="#FB8A6E" opacity="1.000000" stroke="none" 
	d="
M94.024384,93.047363 
	C92.923660,94.004639 91.822929,94.961914 89.951584,95.971245 
	C86.879517,95.878944 83.094093,96.513588 82.537491,95.453285 
	C80.312447,91.214638 77.020706,93.036354 73.832504,92.729095 
	C72.440514,92.308670 71.221741,92.150215 70.002960,91.991753 
	C60.543362,89.079887 57.403385,81.860710 57.093964,72.825836 
	C57.053757,71.651886 57.813473,70.450539 58.582684,69.514343 
	C58.998398,71.162086 59.034100,72.557373 59.103897,74.269424 
	C59.757668,75.395653 60.377338,76.205101 61.003242,77.256912 
	C61.009480,77.499260 61.021080,77.983986 61.018360,78.372574 
	C62.145733,85.736137 66.872864,89.474724 75.108261,89.906738 
	C77.992012,90.058014 82.132401,85.787910 83.116417,81.599411 
	C80.735916,81.072807 78.355499,80.546219 75.609970,79.953232 
	C73.158371,78.256592 68.023438,80.431953 69.314758,74.907928 
	C70.081169,74.910660 70.578423,74.926430 71.075676,74.942192 
	C74.770653,76.291214 78.465637,77.640236 82.859886,78.936310 
	C84.043037,78.583145 84.526909,78.282944 85.010780,77.982742 
	C85.449928,77.976990 85.889084,77.971237 87.031563,77.974838 
	C88.481567,77.976311 89.228233,77.968422 89.974907,77.960541 
	C89.974907,77.960541 90.010262,77.980888 90.100372,78.283279 
	C94.215462,80.620979 95.118622,76.922707 96.939919,74.910713 
	C96.939919,74.910713 96.951180,74.458725 97.292786,74.228516 
	C98.069855,73.979317 98.505302,73.960320 98.956955,73.957047 
	C98.973145,73.972786 99.005882,74.003937 99.005188,74.384781 
	C99.007118,75.529121 99.009743,76.292618 99.012375,77.056107 
	C98.709961,78.138130 98.407547,79.220146 97.748901,80.816742 
	C94.158951,84.445511 90.925217,87.559700 86.780273,91.551422 
	C89.196411,92.050369 91.610397,92.548866 94.024384,93.047363 
z"/>
<path fill="#000000" opacity="1.000000" stroke="none" 
	d="
M71.430069,74.968323 
	C70.578423,74.926430 70.081169,74.910660 69.154358,74.593872 
	C67.172806,72.562508 64.836723,71.063622 64.242477,69.050552 
	C63.208961,65.549393 63.250759,61.730812 62.915619,57.673737 
	C63.359760,55.895451 63.730003,54.488739 64.371094,52.980057 
	C65.086678,52.525314 65.531425,52.172535 66.338867,51.894985 
	C70.185097,55.636780 73.668617,59.303341 77.087082,63.392799 
	C77.060524,65.511757 77.099022,67.207825 77.061646,69.295120 
	C77.033119,70.480453 77.080467,71.274567 77.001038,72.343376 
	C76.278717,73.144211 75.683182,73.670349 75.087646,74.196487 
	C73.986588,74.462479 72.885529,74.728470 71.430069,74.968323 
z"/>
<path fill="#FB9259" opacity="1.000000" stroke="none" 
	d="
M99.360336,76.969757 
	C99.009743,76.292618 99.007118,75.529121 99.262993,74.118385 
	C99.983131,70.946983 100.444763,68.422829 100.906403,65.898674 
	C100.911331,64.861694 100.916260,63.824711 100.912613,62.399220 
	C101.093979,62.005970 101.283936,62.001236 101.759247,61.988125 
	C105.277084,69.908737 104.733971,73.373360 99.360336,76.969757 
z"/>
<path fill="#F77071" opacity="1.000000" stroke="none" 
	d="
M96.586929,74.948494 
	C95.118622,76.922707 94.215462,80.620979 90.117439,78.294441 
	C92.107582,76.997566 94.170769,75.991920 96.586929,74.948494 
z"/>
<path fill="#FB8A6E" opacity="1.000000" stroke="none" 
	d="
M100.585815,66.052666 
	C100.444763,68.422829 99.983131,70.946983 99.263687,73.737534 
	C99.005882,74.003937 98.973145,73.972786 98.969299,73.584457 
	C98.955528,72.445831 98.945610,71.695518 98.935699,70.945213 
	C99.378876,69.365692 99.822052,67.786179 100.585815,66.052666 
z"/>
<path fill="#C15FBC" opacity="1.000000" stroke="none" 
	d="
M75.302322,74.379662 
	C75.683182,73.670349 76.278717,73.144211 77.310783,72.461914 
	C79.004929,72.366844 80.262550,72.427940 81.520164,72.489044 
	C81.520164,72.489044 81.764374,72.750572 81.886169,72.881775 
	C81.465553,73.531021 80.923134,74.049057 80.201080,74.783585 
	C79.557945,75.006325 79.094452,75.012581 78.081276,75.025940 
	C77.531593,75.033051 77.126953,75.077888 77.126953,75.077888 
	C76.590302,74.906204 76.053650,74.734520 75.302322,74.379662 
z"/>
<path fill="#F77071" opacity="1.000000" stroke="none" 
	d="
M98.628448,71.063553 
	C98.945610,71.695518 98.955528,72.445831 98.953102,73.568726 
	C98.505302,73.960320 98.069855,73.979317 97.306473,74.002869 
	C97.426094,73.065582 97.873642,72.123734 98.628448,71.063553 
z"/>
<path fill="#F77071" opacity="1.000000" stroke="none" 
	d="
M89.824020,77.719261 
	C89.228233,77.968422 88.481567,77.976311 87.360931,77.971100 
	C87.882362,77.798004 88.777740,77.637993 89.824020,77.719261 
z"/>
<path fill="#F77071" opacity="1.000000" stroke="none" 
	d="
M84.812157,77.830444 
	C84.526909,78.282944 84.043037,78.583145 83.272629,78.929329 
	C83.528580,78.542915 84.071060,78.110527 84.812157,77.830444 
z"/>
<path fill="#ED48A2" opacity="1.000000" stroke="none" 
	d="
M77.210922,75.173401 
	C77.126953,75.077888 77.531593,75.033051 77.734100,75.039749 
	C77.936615,75.046455 77.655579,75.293770 77.655579,75.293770 
	C77.655579,75.293770 77.294891,75.268906 77.210922,75.173401 
z"/>
<path fill="#F9A859" opacity="1.000000" stroke="none" 
	d="
M62.841728,58.045311 
	C63.250759,61.730812 63.208961,65.549393 64.242477,69.050552 
	C64.836723,71.063622 67.172806,72.562508 68.885193,74.606903 
	C68.023438,80.431953 73.158371,78.256592 75.639236,80.289093 
	C77.854324,85.911720 76.970375,87.119293 71.381851,86.341606 
	C69.680336,86.104836 67.880173,85.109459 66.556778,83.963219 
	C64.516151,82.195740 62.847511,79.998772 61.021080,77.983986 
	C61.021080,77.983986 61.009480,77.499260 60.985783,76.920914 
	C60.331326,75.545929 59.700562,74.749290 59.069798,73.952660 
	C59.034100,72.557373 58.998398,71.162086 58.916130,69.347733 
	C58.896248,68.506454 58.922935,68.084259 59.140190,67.168549 
	C59.217331,66.109207 59.103905,65.543373 58.990475,64.977547 
	C58.918831,64.524460 58.847187,64.071373 58.797638,63.042770 
	C58.861301,62.301826 58.902874,62.136398 59.191948,61.767403 
	C60.573547,60.390991 61.707638,59.218151 62.841728,58.045311 
z"/>
<path fill="#FB7C73" opacity="1.000000" stroke="none" 
	d="
M74.005707,92.991066 
	C77.020706,93.036354 80.312447,91.214638 82.537491,95.453285 
	C83.094093,96.513588 86.879517,95.878944 89.637878,96.037445 
	C88.976112,96.999702 87.857430,97.947815 86.411484,98.953117 
	C81.433357,98.526375 75.873650,100.788078 73.234100,94.204239 
	C73.627022,93.504173 73.824974,93.272606 73.991165,93.005676 
	C73.996613,93.002113 74.005707,92.991066 74.005707,92.991066 
z"/>
<path fill="#FC5F86" opacity="1.000000" stroke="none" 
	d="
M58.944443,61.970970 
	C58.902874,62.136398 58.861301,62.301826 58.725109,62.706451 
	C57.494122,64.669968 56.006439,66.266449 55.319527,68.154297 
	C54.623199,70.068024 54.718128,72.269661 54.244793,74.669647 
	C53.589012,74.985237 53.154938,74.976379 52.385742,74.635254 
	C52.049496,73.866592 52.048370,73.430206 52.262848,72.671356 
	C52.668011,70.714401 52.619053,69.005814 53.098713,67.461418 
	C53.990639,64.589607 54.171650,60.949917 58.668583,61.194496 
	C58.834385,61.621151 58.889416,61.796062 58.944443,61.970970 
z"/>
<path fill="#FC5F86" opacity="1.000000" stroke="none" 
	d="
M55.957741,80.680275 
	C55.310059,79.929222 54.670036,78.813675 54.039360,77.334534 
	C54.687603,78.085884 55.326500,79.200829 55.957741,80.680275 
z"/>
<path fill="#FB7C73" opacity="1.000000" stroke="none" 
	d="
M70.247528,92.205246 
	C71.221741,92.150215 72.440514,92.308670 73.832504,92.729095 
	C74.005707,92.991066 73.996613,93.002113 73.742447,93.003700 
	C73.488281,93.005287 72.990463,93.000992 72.990463,93.000992 
	C72.157677,92.806908 71.324883,92.612816 70.247528,92.205246 
z"/>
<path fill="#FD975B" opacity="1.000000" stroke="none" 
	d="
M58.969746,65.318985 
	C59.103905,65.543373 59.217331,66.109207 59.160637,66.851456 
	C58.976681,66.572060 58.962849,66.116241 58.969746,65.318985 
z"/>
<path fill="#FB8A6E" opacity="1.000000" stroke="none" 
	d="
M72.997330,93.243942 
	C72.990463,93.000992 73.488281,93.005287 73.737000,93.007263 
	C73.824974,93.272606 73.627022,93.504173 73.206772,93.838310 
	C73.021660,93.972687 73.004189,93.486900 72.997330,93.243942 
z"/>
<path fill="#F23FA7" opacity="1.000000" stroke="none" 
	d="
M52.047241,72.993813 
	C52.048370,73.430206 52.049496,73.866592 52.060356,74.629379 
	C52.715717,77.975067 52.699883,81.365166 54.142120,83.937904 
	C57.326836,89.618958 61.245789,94.888412 64.937714,100.663788 
	C64.196953,100.710327 63.383682,100.418861 62.244431,100.103584 
	C61.139038,99.802795 60.359619,99.525826 59.299637,99.111145 
	C56.446770,94.229515 53.580524,89.617599 51.376080,84.708504 
	C48.579056,78.479774 47.667961,71.938637 50.645199,65.575607 
	C51.358410,68.229691 51.702827,70.611755 52.047241,72.993813 
z"/>
<path fill="#FB9259" opacity="1.000000" stroke="none" 
	d="
M94.283440,92.891632 
	C91.610397,92.548866 89.196411,92.050369 86.780273,91.551422 
	C90.925217,87.559700 94.158951,84.445511 97.684891,81.148285 
	C98.417320,82.423187 99.340767,83.939049 99.174698,85.324310 
	C98.969910,87.032593 97.858360,88.632172 97.072922,90.636879 
	C96.185623,91.575310 95.364059,92.155602 94.283440,92.891632 
z"/>
<path fill="#21CAF6" opacity="1.000000" stroke="none" 
	d="
M39.088394,50.998547 
	C39.039799,51.731941 38.991199,52.465332 38.911438,53.563908 
	C34.294918,58.399509 36.004887,64.416801 34.988808,69.764328 
	C34.740597,71.070633 35.860584,73.711067 32.391434,72.087509 
	C31.683346,70.320816 31.249422,68.620537 30.851376,66.162949 
	C30.892368,64.641106 30.897480,63.876560 30.928778,62.762344 
	C30.964348,61.946522 30.973734,61.480366 31.357128,60.972210 
	C32.542320,59.729622 33.474205,58.591675 34.137188,57.314175 
	C35.206764,55.253212 36.099201,53.100315 37.402092,50.989128 
	C38.187943,50.994186 38.638168,50.996365 39.088394,50.998547 
z"/>
<path fill="#16D5F7" opacity="1.000000" stroke="none" 
	d="
M37.066460,50.986252 
	C36.099201,53.100315 35.206764,55.253212 34.137188,57.314175 
	C33.474205,58.591675 32.542320,59.729622 31.140900,60.787643 
	C28.351810,58.402946 27.801315,60.538101 26.809547,62.203110 
	C26.460556,62.957256 26.293756,63.493546 25.828999,64.182648 
	C24.020166,65.582611 22.509295,66.829758 20.998423,68.076904 
	C21.943390,64.614090 22.888355,61.151276 23.901367,57.323578 
	C24.022552,56.571346 24.075693,56.183994 24.184361,55.510063 
	C28.630388,49.269516 33.020889,43.315556 37.882442,37.338371 
	C39.244160,38.546734 40.134830,39.778324 40.922653,41.347198 
	C40.204540,43.453419 39.589275,45.222355 38.679169,47.079643 
	C37.945908,47.807652 37.507488,48.447311 37.069420,49.403610 
	C37.068672,50.142254 37.067566,50.564251 37.066460,50.986252 
z"/>
<path fill="#30C0F0" opacity="1.000000" stroke="none" 
	d="
M21.001234,68.494751 
	C22.509295,66.829758 24.020166,65.582611 26.014130,64.400482 
	C26.696875,65.008080 26.896530,65.550659 27.096184,66.093239 
	C27.048040,66.498894 26.999895,66.904549 26.590246,67.707497 
	C25.211163,69.789413 24.193584,71.474045 23.176006,73.158669 
	C22.895864,74.244789 22.615721,75.330902 21.929668,76.828888 
	C21.019743,77.496574 20.515724,77.752388 19.997982,77.996918 
	C19.984261,77.985634 19.956388,77.961708 19.956388,77.961708 
	C20.305607,74.945335 20.654827,71.928963 21.001234,68.494751 
z"/>
<path fill="#4BADE4" opacity="1.000000" stroke="none" 
	d="
M17.810383,90.888176 
	C17.134876,92.860977 16.459370,94.833771 15.473978,96.945045 
	C15.171010,95.320412 15.177925,93.557297 15.480337,91.430473 
	C16.454016,91.007233 17.132198,90.947701 17.810383,90.888176 
z"/>
<path fill="#30C0F0" opacity="1.000000" stroke="none" 
	d="
M17.821598,90.613319 
	C17.132198,90.947701 16.454016,91.007233 15.437293,91.108841 
	C15.609841,89.591873 16.120930,88.032822 17.068203,86.398735 
	C17.740995,86.590042 17.977606,86.856369 18.214216,87.122704 
	C18.087082,88.194626 17.959949,89.266541 17.821598,90.613319 
z"/>
<path fill="#30C0F0" opacity="1.000000" stroke="none" 
	d="
M20.202278,80.161392 
	C19.863537,81.225769 19.524796,82.290146 18.837229,83.698174 
	C18.043741,84.088951 17.599081,84.136086 17.154419,84.183212 
	C17.874521,82.198517 18.594624,80.213814 19.635557,78.095413 
	C19.956388,77.961708 19.984261,77.985634 20.011242,78.356499 
	C20.092907,79.205376 20.147593,79.683380 20.202278,80.161392 
z"/>
<path fill="#30C0F0" opacity="1.000000" stroke="none" 
	d="
M14.709667,97.108002 
	C15.060315,97.748642 15.090965,98.483772 15.140489,99.585281 
	C14.583437,100.825928 14.007511,101.700203 13.217573,102.807007 
	C12.997323,102.281967 12.991087,101.524399 12.980907,100.388977 
	C13.447865,99.074905 13.918768,98.138695 14.709667,97.108002 
z"/>
<path fill="#4BADE4" opacity="1.000000" stroke="none" 
	d="
M17.135109,84.480209 
	C17.599081,84.136086 18.043741,84.088951 18.827503,84.038300 
	C19.022215,84.987984 18.877825,85.941177 18.473825,87.008545 
	C17.977606,86.856369 17.740995,86.590042 17.307081,86.147812 
	C17.111782,85.573677 17.113791,85.175446 17.135109,84.480209 
z"/>
<path fill="#30C0F0" opacity="1.000000" stroke="none" 
	d="
M52.995949,17.407913 
	C58.170246,15.074344 63.251156,13.052164 68.912056,10.799152 
	C68.912056,13.148688 68.912056,14.764399 68.959534,16.692453 
	C69.007019,17.004799 69.016716,17.017241 68.650146,17.030165 
	C62.479298,19.784264 56.364044,22.154398 53.853817,29.266844 
	C53.128063,30.345016 52.555408,31.164907 51.613152,31.987007 
	C50.505283,31.998928 49.767025,32.008640 49.088665,31.675348 
	C50.608521,28.885983 52.068470,26.439621 53.776047,23.578325 
	C51.926529,22.960222 50.433777,22.461348 48.941021,21.962473 
	C48.941021,21.962473 48.959450,21.481489 48.975407,21.241386 
	C50.295097,19.907290 51.598827,18.813297 52.995949,17.407913 
z"/>
<path fill="#22C9F6" opacity="1.000000" stroke="none" 
	d="
M48.660816,22.141575 
	C50.433777,22.461348 51.926529,22.960222 53.776047,23.578325 
	C52.068470,26.439621 50.608521,28.885983 49.077560,31.668953 
	C49.006550,32.005562 49.005882,32.019184 48.814407,32.154411 
	C48.381832,32.493900 48.182858,32.733192 48.018471,33.013641 
	C48.010921,33.019772 48.022232,33.036526 47.766861,33.083344 
	C47.341908,33.753639 47.172329,34.377121 46.993675,35.365639 
	C46.937702,36.456806 46.890797,37.182938 46.502125,37.935627 
	C44.448738,38.978092 42.737118,39.994003 41.025501,41.009911 
	C40.134830,39.778324 39.244160,38.546734 38.107872,37.082764 
	C39.193214,30.432507 43.852951,26.424397 48.660816,22.141575 
z"/>
<path fill="#4BADE4" opacity="1.000000" stroke="none" 
	d="
M27.463486,66.082764 
	C26.896530,65.550659 26.696875,65.008080 26.312088,64.247665 
	C26.293756,63.493546 26.460556,62.957256 27.121105,62.347961 
	C28.710768,62.553978 29.806681,62.832996 30.902592,63.112015 
	C30.897480,63.876560 30.892368,64.641106 30.822412,65.785698 
	C29.781975,66.134598 28.806381,66.103447 27.463486,66.082764 
z"/>
<path fill="#4BADE4" opacity="1.000000" stroke="none" 
	d="
M23.492508,73.050690 
	C24.193584,71.474045 25.211163,69.789413 26.550650,68.011322 
	C25.851377,69.592812 24.830194,71.267761 23.492508,73.050690 
z"/>
<path fill="#4BADE4" opacity="1.000000" stroke="none" 
	d="
M20.494608,80.021263 
	C20.147593,79.683380 20.092907,79.205376 20.024963,78.367783 
	C20.515724,77.752388 21.019743,77.496574 21.787197,77.135880 
	C21.629402,77.981049 21.208170,78.931091 20.494608,80.021263 
z"/>
<path fill="#50A9E4" opacity="1.000000" stroke="none" 
	d="
M82.059578,26.107597 
	C78.958900,27.040474 75.858215,27.973352 72.375854,28.569405 
	C71.025093,27.341211 70.119896,25.788891 69.074440,25.687847 
	C66.406883,25.430025 63.676743,25.819653 61.081245,25.625641 
	C62.531528,24.435173 64.128441,23.797771 65.152321,22.649439 
	C66.655380,20.963675 67.748779,18.912643 69.016716,17.017242 
	C69.016716,17.017241 69.007019,17.004799 69.012421,17.010780 
	C74.095726,15.028380 79.173645,13.039997 84.744164,11.280275 
	C85.492653,12.006714 85.748535,12.504492 85.827194,13.269583 
	C84.637138,14.428006 83.624313,15.319118 81.795509,16.928143 
	C84.729874,17.647209 86.786438,17.965734 88.684448,18.696243 
	C89.603004,19.049778 90.223907,20.176664 90.979584,20.953407 
	C88.694946,22.423449 86.410316,23.893488 83.734970,25.709414 
	C82.916031,26.072731 82.487808,26.090164 82.059578,26.107597 
z"/>
<path fill="#58A4E3" opacity="1.000000" stroke="none" 
	d="
M91.295822,20.816870 
	C90.223907,20.176664 89.603004,19.049778 88.684448,18.696243 
	C86.786438,17.965734 84.729874,17.647209 81.795509,16.928143 
	C83.624313,15.319118 84.637138,14.428006 86.192032,13.247893 
	C89.156670,11.640175 91.579247,10.321458 94.001831,9.002741 
	C96.298180,7.557119 98.594528,6.111499 100.991119,4.329699 
	C102.779510,4.000259 104.467667,4.006999 106.580505,4.023942 
	C105.124039,5.692568 103.443954,7.702542 101.311760,8.922065 
	C98.531670,10.512160 97.680321,11.958134 100.978767,14.539450 
	C97.564934,16.777584 94.588493,18.728958 91.295822,20.816870 
z"/>
<path fill="#44B2E3" opacity="1.000000" stroke="none" 
	d="
M93.813927,8.724565 
	C91.579247,10.321458 89.156670,11.640175 86.369247,12.980581 
	C85.748535,12.504492 85.492653,12.006714 85.111633,11.258698 
	C87.637672,9.383368 89.659630,5.636477 93.813927,8.724565 
z"/>
<path fill="#30C0F0" opacity="1.000000" stroke="none" 
	d="
M75.274193,7.211703 
	C76.470360,7.298407 77.336609,7.461352 78.202850,7.624298 
	C78.274895,8.038456 78.346931,8.452613 78.418968,8.866771 
	C76.378036,9.630158 74.337105,10.393545 72.296173,11.156932 
	C72.059128,10.653461 71.822083,10.149988 71.585037,9.646516 
	C72.704781,8.860326 73.824532,8.074135 75.274193,7.211703 
z"/>
<path fill="#828AD5" opacity="1.000000" stroke="none" 
	d="
M81.922699,26.419910 
	C82.487808,26.090164 82.916031,26.072731 83.665741,26.051937 
	C83.987228,26.048576 83.969719,26.074619 83.997734,26.386242 
	C84.046013,26.895987 84.066277,27.094107 84.086548,27.292229 
	C81.774178,28.921385 79.461807,30.550541 77.006699,32.472595 
	C76.465317,32.838352 76.066666,32.911205 75.368950,33.036404 
	C74.881241,33.056976 74.692596,33.025208 74.220718,32.943230 
	C76.553596,30.839420 79.169708,28.785822 81.922699,26.419910 
z"/>
<path fill="#7691DA" opacity="1.000000" stroke="none" 
	d="
M108.691383,9.185472 
	C109.299324,10.132261 109.610054,11.263322 109.996918,12.742819 
	C109.567604,13.647379 109.062157,14.203504 107.966415,14.889210 
	C106.916718,15.012241 106.457298,15.005691 105.997894,14.999140 
	C106.796646,13.122675 107.595406,11.246209 108.691383,9.185472 
z"/>
<path fill="#7691DA" opacity="1.000000" stroke="none" 
	d="
M84.449738,27.227177 
	C84.066277,27.094107 84.046013,26.895987 84.006203,26.400728 
	C85.508896,25.467258 87.031136,24.830925 88.921211,24.191027 
	C87.797012,25.179016 86.304970,26.170570 84.449738,27.227177 
z"/>
<path fill="#8289D3" opacity="1.000000" stroke="none" 
	d="
M105.862221,15.284540 
	C106.457298,15.005691 106.916718,15.012241 107.721519,15.034416 
	C107.253876,15.986508 106.440842,16.922976 105.298660,17.909286 
	C105.221863,17.162733 105.474205,16.366337 105.862221,15.284540 
z"/>
<path fill="#7691DA" opacity="1.000000" stroke="none" 
	d="
M99.308556,20.921810 
	C99.586807,20.298944 100.116051,19.547287 100.862068,18.979836 
	C100.572418,19.707035 100.065987,20.250025 99.308556,20.921810 
z"/>
<path fill="#7691DA" opacity="1.000000" stroke="none" 
	d="
M95.372421,22.147808 
	C95.563225,21.658098 96.081100,21.181170 96.801407,21.145603 
	C97.005867,21.778135 97.007881,21.969301 97.009895,22.160469 
	C96.573097,22.160509 96.136292,22.160547 95.372421,22.147808 
z"/>
<path fill="#8289D3" opacity="1.000000" stroke="none" 
	d="
M97.216736,22.285549 
	C97.007881,21.969301 97.005867,21.778135 97.003448,21.300365 
	C97.463943,21.026173 97.924835,21.038582 98.730736,21.089108 
	C98.525024,21.555023 97.974304,21.982826 97.216736,22.285549 
z"/>
<path fill="#7691DA" opacity="1.000000" stroke="none" 
	d="
M91.351303,24.045351 
	C91.559570,23.489874 92.070633,22.854095 92.915268,22.185654 
	C92.717270,22.757011 92.185692,23.361032 91.351303,24.045351 
z"/>
<path fill="#818CD3" opacity="1.000000" stroke="none" 
	d="
M81.696777,72.209808 
	C80.262550,72.427940 79.004929,72.366844 77.437569,72.187210 
	C77.080467,71.274567 77.033119,70.480453 77.412186,69.319321 
	C78.975487,68.404060 80.112366,67.855827 81.565430,67.117401 
	C86.274040,60.149273 83.416969,53.809563 80.203926,47.842934 
	C79.077568,45.751293 76.105804,44.653412 73.612877,43.047157 
	C72.785187,42.844585 72.321342,42.696606 71.809822,42.272972 
	C71.840691,41.632431 71.919243,41.267544 71.997795,40.902653 
	C79.811142,39.081146 82.234932,40.888424 85.427094,48.538128 
	C89.080788,57.293873 88.494331,64.955727 81.696777,72.209808 
z"/>
<path fill="#DE54A6" opacity="1.000000" stroke="none" 
	d="
M71.968185,40.589684 
	C71.919243,41.267544 71.840691,41.632431 71.508293,42.458786 
	C70.685410,43.875580 70.116386,44.830910 69.245789,45.897892 
	C67.897011,47.288982 66.849808,48.568417 65.566124,49.745472 
	C64.869911,49.403290 64.410172,49.163486 63.892799,48.677395 
	C63.224922,48.625786 62.614670,48.820469 62.001633,49.008873 
	C61.998840,49.002602 62.012966,49.006832 61.606926,49.000412 
	C60.115967,48.977753 59.031048,48.961521 57.946129,48.945290 
	C58.860149,47.490593 59.774166,46.035900 60.856739,44.308762 
	C63.497326,42.600670 65.891785,40.993172 68.483727,39.823147 
	C69.383705,39.416889 70.772842,40.094269 71.968185,40.589684 
z"/>
<path fill="#F74F94" opacity="1.000000" stroke="none" 
	d="
M57.730251,49.190502 
	C59.031048,48.961521 60.115967,48.977753 61.461777,49.306183 
	C61.164028,51.086685 60.605385,52.554993 60.016983,54.341904 
	C59.951653,55.085674 59.916084,55.510834 59.701187,55.965881 
	C59.330681,56.321983 59.139503,56.648205 58.935879,57.372429 
	C58.801556,58.827869 58.679680,59.885307 58.557808,60.942749 
	C54.171650,60.949917 53.990639,64.589607 53.098713,67.461418 
	C52.619053,69.005814 52.668011,70.714401 52.262848,72.671356 
	C51.702827,70.611755 51.358410,68.229691 51.003418,65.420830 
	C50.992844,64.994026 50.999798,64.999992 51.292419,64.795563 
	C52.387142,61.725025 53.189247,58.858906 53.991356,55.992790 
	C54.005424,55.556816 54.019501,55.120838 54.046257,54.358341 
	C55.210747,52.499783 56.362560,50.967747 57.730251,49.190502 
z"/>
<path fill="#F23FA7" opacity="1.000000" stroke="none" 
	d="
M53.697815,56.197136 
	C53.189247,58.858906 52.387142,61.725025 51.289764,64.793320 
	C51.797756,62.130825 52.601017,59.266155 53.697815,56.197136 
z"/>
<path fill="#5CA2E1" opacity="1.000000" stroke="none" 
	d="
M60.971642,25.950241 
	C63.676743,25.819653 66.406883,25.430025 69.074440,25.687847 
	C70.119896,25.788891 71.025093,27.341211 72.007637,28.600269 
	C70.512810,29.835838 69.004509,30.703718 66.924507,31.841244 
	C65.233910,32.737720 64.115013,33.364552 62.996113,33.991386 
	C62.996113,33.991386 62.999386,33.999409 62.994576,33.995659 
	C59.905106,34.879070 56.863598,36.972252 53.329437,34.167347 
	C53.006359,34.008717 52.996899,33.995308 53.171768,33.703888 
	C55.883934,30.932781 58.421234,28.453096 60.965984,25.973915 
	C60.973434,25.974417 60.971642,25.950241 60.971642,25.950241 
z"/>
<path fill="#3CBAEB" opacity="1.000000" stroke="none" 
	d="
M40.922653,41.347198 
	C42.737118,39.994003 44.448738,38.978092 46.542267,37.958931 
	C46.924179,37.955681 47.005184,38.001030 47.004196,38.338280 
	C47.012798,39.125320 47.022392,39.575115 47.031982,40.024906 
	C46.532566,40.592930 46.033154,41.160957 44.940331,41.941353 
	C43.570484,43.444450 42.794044,44.735184 42.017609,46.025917 
	C41.247131,47.613121 40.476662,49.200329 39.397289,50.893044 
	C38.638168,50.996365 38.187943,50.994186 37.402092,50.989128 
	C37.067566,50.564251 37.068672,50.142254 37.355812,49.300461 
	C38.085903,48.250877 38.529957,47.621086 38.974007,46.991295 
	C39.589275,45.222355 40.204540,43.453419 40.922653,41.347198 
z"/>
<path fill="#42B2EB" opacity="1.000000" stroke="none" 
	d="
M46.884033,37.932377 
	C46.890797,37.182938 46.937702,36.456806 47.193787,35.164310 
	C47.609390,34.077477 47.815811,33.556999 48.022232,33.036526 
	C48.022232,33.036526 48.010921,33.019772 48.209412,32.878075 
	C48.648643,32.531845 48.847973,32.292782 49.005882,32.019184 
	C49.005882,32.019184 49.006550,32.005562 49.017654,32.011955 
	C49.767025,32.008640 50.505283,31.998928 51.618248,32.321411 
	C51.992966,33.099014 51.992985,33.544415 51.741997,34.051949 
	C51.330902,34.743397 51.170822,35.372715 51.010742,36.002029 
	C50.831928,36.268970 50.620083,36.506435 49.869614,36.904938 
	C48.577751,37.397312 47.791466,37.699169 47.005184,38.001030 
	C47.005184,38.001030 46.924179,37.955681 46.884033,37.932377 
z"/>
<path fill="#42B2EB" opacity="1.000000" stroke="none" 
	d="
M42.265137,45.897095 
	C42.794044,44.735184 43.570484,43.444450 44.692856,42.086155 
	C44.783836,42.821514 44.528885,43.624439 44.137161,44.714493 
	C43.504482,45.257175 43.008575,45.512722 42.265137,45.897095 
z"/>
<path fill="#50A9E4" opacity="1.000000" stroke="none" 
	d="
M47.004196,38.338280 
	C47.791466,37.699169 48.577751,37.397312 49.676231,37.045853 
	C49.203449,37.946888 48.418468,38.897526 47.332733,39.936535 
	C47.022392,39.575115 47.012798,39.125320 47.004196,38.338280 
z"/>
<path fill="#5CA2E1" opacity="1.000000" stroke="none" 
	d="
M51.259491,35.859535 
	C51.170822,35.372715 51.330902,34.743397 51.993004,34.054657 
	C52.662315,33.995262 52.829605,33.995285 52.996899,33.995308 
	C52.996899,33.995308 53.006359,34.008717 53.012989,34.018219 
	C52.515827,34.590832 52.012032,35.153934 51.259491,35.859535 
z"/>
<path fill="#6798DC" opacity="1.000000" stroke="none" 
	d="
M63.357780,33.988197 
	C64.115013,33.364552 65.233910,32.737720 66.676956,32.059193 
	C65.907227,32.666664 64.813332,33.325836 63.357780,33.988197 
z"/>
<path fill="#FD975B" opacity="1.000000" stroke="none" 
	d="
M61.018360,78.372574 
	C62.847511,79.998772 64.516151,82.195740 66.556778,83.963219 
	C67.880173,85.109459 69.680336,86.104836 71.381851,86.341606 
	C76.970375,87.119293 77.854324,85.911720 76.004349,80.355499 
	C78.355499,80.546219 80.735916,81.072807 83.116417,81.599411 
	C82.132401,85.787910 77.992012,90.058014 75.108261,89.906738 
	C66.872864,89.474724 62.145733,85.736137 61.018360,78.372574 
z"/>
<path fill="#FD975B" opacity="1.000000" stroke="none" 
	d="
M59.103897,74.269424 
	C59.700562,74.749290 60.331326,75.545929 60.979546,76.678558 
	C60.377338,76.205101 59.757668,75.395653 59.103897,74.269424 
z"/>
<path fill="#1ED0F0" opacity="1.000000" stroke="none" 
	d="
M65.802597,49.847851 
	C66.849808,48.568417 67.897011,47.288982 69.644363,45.952057 
	C72.540764,46.613083 74.737038,47.331596 76.951981,48.284374 
	C76.970650,48.518639 77.020302,48.986027 77.083099,49.359585 
	C78.037140,52.578430 79.092178,55.385643 79.765289,58.281628 
	C80.260612,60.412708 80.469467,62.780766 77.152145,62.969902 
	C73.668617,59.303341 70.185097,55.636780 66.336624,51.564568 
	C65.915321,50.721893 65.858955,50.284870 65.802597,49.847851 
z"/>
<path fill="#35C3EB" opacity="1.000000" stroke="none" 
	d="
M77.087082,63.392799 
	C80.469467,62.780766 80.260612,60.412708 79.765289,58.281628 
	C79.092178,55.385643 78.037140,52.578430 77.433868,49.446045 
	C78.479362,50.120621 79.775833,51.016273 79.903091,52.055153 
	C80.523293,57.118294 80.830978,62.219719 81.249252,67.307594 
	C80.112366,67.855827 78.975487,68.404060 77.488060,68.928093 
	C77.099022,67.207825 77.060524,65.511757 77.087082,63.392799 
z"/>
<path fill="#FB8A6E" opacity="1.000000" stroke="none" 
	d="
M58.668579,61.194496 
	C58.679680,59.885307 58.801556,58.827869 59.134438,57.241089 
	C59.593613,56.501320 59.771973,56.242733 59.880516,55.935997 
	C59.916084,55.510834 59.951653,55.085674 60.358887,54.279579 
	C61.853790,53.626442 62.977020,53.354233 64.100250,53.082024 
	C63.730003,54.488739 63.359760,55.895451 62.915619,57.673737 
	C61.707638,59.218151 60.573547,60.390991 59.191948,61.767403 
	C58.889416,61.796062 58.834385,61.621151 58.668579,61.194496 
z"/>
<path fill="#F36F88" opacity="1.000000" stroke="none" 
	d="
M64.371094,52.980057 
	C62.977020,53.354233 61.853790,53.626442 60.388653,53.960976 
	C60.605385,52.554993 61.164028,51.086685 61.867821,49.312607 
	C62.012966,49.006832 61.998840,49.002602 62.326752,49.003914 
	C63.086590,48.978046 63.518509,48.950867 63.950432,48.923683 
	C64.410172,49.163486 64.869911,49.403290 65.566124,49.745472 
	C65.858955,50.284870 65.915321,50.721893 65.973923,51.489334 
	C65.531425,52.172535 65.086678,52.525314 64.371094,52.980057 
z"/>
<path fill="#30C0F0" opacity="1.000000" stroke="none" 
	d="
M30.928778,62.762344 
	C29.806681,62.832996 28.710768,62.553978 27.303299,62.130112 
	C27.801315,60.538101 28.351810,58.402946 30.766888,60.829643 
	C30.973734,61.480366 30.964348,61.946522 30.928778,62.762344 
z"/>
<path fill="#21CAF6" opacity="1.000000" stroke="none" 
	d="
M38.679169,47.079643 
	C38.529957,47.621086 38.085903,48.250877 37.355461,48.983818 
	C37.507488,48.447311 37.945908,47.807652 38.679169,47.079643 
z"/>
<path fill="#3EB7EB" opacity="1.000000" stroke="none" 
	d="
M68.650146,17.030167 
	C67.748779,18.912643 66.655380,20.963675 65.152321,22.649439 
	C64.128441,23.797771 62.531528,24.435173 61.081245,25.625641 
	C60.971642,25.950241 60.973434,25.974417 60.623817,26.038269 
	C58.185108,27.070936 56.096012,28.039749 54.006916,29.008560 
	C56.364044,22.154398 62.479298,19.784264 68.650146,17.030167 
z"/>
<path fill="#50A9E4" opacity="1.000000" stroke="none" 
	d="
M53.853817,29.266846 
	C56.096012,28.039749 58.185108,27.070936 60.616367,26.037767 
	C58.421234,28.453096 55.883934,30.932781 53.171768,33.703888 
	C52.829605,33.995285 52.662315,33.995262 52.244011,33.992527 
	C51.992985,33.544415 51.992966,33.099014 51.987850,32.319206 
	C52.555408,31.164907 53.128063,30.345016 53.853817,29.266846 
z"/>
<path fill="#30C0F0" opacity="1.000000" stroke="none" 
	d="
M47.766861,33.083344 
	C47.815811,33.556999 47.609390,34.077477 47.202858,34.799278 
	C47.172329,34.377121 47.341908,33.753639 47.766861,33.083344 
z"/>
<path fill="#30C0F0" opacity="1.000000" stroke="none" 
	d="
M48.814407,32.154411 
	C48.847973,32.292782 48.648643,32.531845 48.216957,32.871944 
	C48.182858,32.733192 48.381832,32.493900 48.814407,32.154411 
z"/>
<path fill="#4AAFE7" opacity="1.000000" stroke="none" 
	d="
M81.565430,67.117401 
	C80.830978,62.219719 80.523293,57.118294 79.903091,52.055153 
	C79.775833,51.016273 78.479362,50.120621 77.371063,49.072487 
	C77.020302,48.986027 76.970650,48.518639 76.906509,47.951973 
	C75.887161,45.957455 74.931946,44.529598 73.976723,43.101746 
	C76.105804,44.653412 79.077568,45.751293 80.203926,47.842934 
	C83.416969,53.809563 86.274040,60.149273 81.565430,67.117401 
z"/>
<path fill="#35C3EB" opacity="1.000000" stroke="none" 
	d="
M73.612877,43.047157 
	C74.931946,44.529598 75.887161,45.957455 76.887840,47.717712 
	C74.737038,47.331596 72.540764,46.613083 69.945923,45.840401 
	C70.116386,44.830910 70.685410,43.875580 71.555969,42.734436 
	C72.321342,42.696606 72.785187,42.844585 73.612877,43.047157 
z"/>
<path fill="#F74F94" opacity="1.000000" stroke="none" 
	d="
M63.892799,48.677395 
	C63.518509,48.950867 63.086590,48.978046 62.329544,49.010185 
	C62.614670,48.820469 63.224922,48.625786 63.892799,48.677395 
z"/>
<path fill="#F36F88" opacity="1.000000" stroke="none" 
	d="
M59.701187,55.965881 
	C59.771973,56.242733 59.593613,56.501320 59.146889,56.843090 
	C59.139503,56.648205 59.330681,56.321983 59.701187,55.965881 
z"/>
</svg>